<?xml version="1.0" encoding="iso-8859-1"?>
<!-- Generator: Adobe Illustrator 18.1.1, SVG Export Plug-In . SVG Version: 6.00 Build 0)  -->
<svg version="1.1" id="Capa_1" xmlns="http://www.w3.org/2000/svg" xmlns:xlink="http://www.w3.org/1999/xlink" x="0px" y="0px"
	 viewBox="0 0 13 13" style="enable-background:new 0 0 13 13;" xml:space="preserve">
<g>
	<g>
		<path style="fill:#030104;" d="M7.747,3.17L7,3.833v0.049C7.618,4.557,8,5.481,8,6.5c0,1.02-0.382,1.943-1,2.618v0.049L7.747,9.83
			C8.523,8.966,9,7.793,9,6.5S8.523,4.034,7.747,3.17z"/>
		<polygon style="fill:#030104;" points="0,4.5 0,6.5 0,8.5 2,8.5 5,11.5 5,1.5 2,4.5 		"/>
		<path style="fill:#030104;" d="M9.32,1.771L8.572,2.435C9.466,3.549,10,4.962,10,6.5s-0.534,2.952-1.427,4.064l0.747,0.664
			C10.371,9.939,11,8.294,11,6.5C11,4.707,10.371,3.061,9.32,1.771z"/>
		<path style="fill:#030104;" d="M10.848,0.414l-0.752,0.668C11.286,2.56,12,4.445,12,6.5s-0.714,3.939-1.904,5.418l0.752,0.668
			C12.191,10.93,13,8.81,13,6.5S12.191,2.07,10.848,0.414z"/>
	</g>
</g>
<g>
</g>
<g>
</g>
<g>
</g>
<g>
</g>
<g>
</g>
<g>
</g>
<g>
</g>
<g>
</g>
<g>
</g>
<g>
</g>
<g>
</g>
<g>
</g>
<g>
</g>
<g>
</g>
<g>
</g>
</svg>
